<svg xmlns="http://www.w3.org/2000/svg" viewBox="0 0 32 32" width="32" height="32">
  <defs>
    <linearGradient id="heartGradient" x1="0%" y1="0%" x2="100%" y2="100%">
      <stop offset="0%" style="stop-color:#9caf88;stop-opacity:1" />
      <stop offset="100%" style="stop-color:#8a9a7a;stop-opacity:1" />
    </linearGradient>
  </defs>
  <path d="M16 28c-.3 0-.6-.1-.8-.3l-9.5-9.5c-3.1-3.1-3.1-8.2 0-11.3s8.2-3.1 11.3 0l9.5 9.5c.4.4.4 1 0 1.4l-9.5 9.5c-.2.2-.5.3-.8.3z" fill="url(#heartGradient)"/>
  <path d="M16 6c-2.1 0-4.1.8-5.7 2.3l-9.5 9.5c-3.1 3.1-3.1 8.2 0 11.3s8.2 3.1 11.3 0l9.5-9.5c1.5-1.5 2.3-3.5 2.3-5.7s-.8-4.1-2.3-5.7c-1.6-1.5-3.6-2.3-5.7-2.3z" fill="none" stroke="#6b7a5a" stroke-width="1"/>
</svg> 